<svg xmlns="http://www.w3.org/2000/svg" xmlns:xlink="http://www.w3.org/1999/xlink" width="500" zoomAndPan="magnify" viewBox="0 0 375 374.999991" height="500" preserveAspectRatio="xMidYMid meet" version="1.0"><defs><g/><clipPath id="badc652ba8"><path d="M 63 94.054688 L 83 94.054688 L 83 168 L 63 168 Z M 63 94.054688 " clip-rule="nonzero"/></clipPath><clipPath id="801a5bcc2c"><path d="M 82 94.054688 L 101 94.054688 L 101 168 L 82 168 Z M 82 94.054688 " clip-rule="nonzero"/></clipPath><clipPath id="15fbdd7895"><path d="M 38 149 L 83 149 L 83 280.804688 L 38 280.804688 Z M 38 149 " clip-rule="nonzero"/></clipPath><clipPath id="3b1ba3a3be"><path d="M 81 149 L 126 149 L 126 280.804688 L 81 280.804688 Z M 81 149 " clip-rule="nonzero"/></clipPath></defs><g clip-path="url(#badc652ba8)"><path fill="#08ebd0" d="M 82.011719 88.121094 L 74.621094 96.148438 L 75.097656 126.199219 L 71.28125 99.804688 L 63.6875 108.035156 L 72.992188 164.082031 L 75.8125 167.023438 L 77.523438 146.351562 L 82.011719 167.699219 Z M 82.011719 88.121094 " fill-opacity="1" fill-rule="evenodd"/></g><g clip-path="url(#801a5bcc2c)"><path fill="#007d7d" d="M 82.011719 88.121094 L 89.40625 96.148438 L 88.929688 126.199219 L 92.746094 99.804688 L 100.339844 108.035156 L 91.035156 164.082031 L 88.214844 167.023438 L 86.503906 146.351562 L 82.011719 167.699219 Z M 82.011719 88.121094 " fill-opacity="1" fill-rule="evenodd"/></g><g clip-path="url(#15fbdd7895)"><path fill="#9272ae" d="M 46.199219 168.492188 C 43.496094 177.121094 44.371094 188.847656 54.070312 200.8125 C 54.070312 200.8125 42.421875 196.714844 39.320312 176.882812 C 39.320312 176.882812 37.574219 191.429688 38.40625 206.335938 C 38.40625 206.335938 41.46875 203.117188 43.933594 201.40625 C 43.933594 201.40625 39.441406 207.527344 39.320312 221.480469 L 60.589844 242.667969 L 44.808594 231.417969 C 44.808594 231.417969 48.542969 243.699219 44.25 260.675781 L 68.417969 286.871094 L 68.617188 237.539062 C 68.617188 237.539062 53.671875 226.6875 52.359375 225.375 C 51.046875 224.0625 51.246094 211.542969 51.246094 211.542969 L 73.546875 224.542969 C 73.546875 224.542969 76.527344 234.160156 73.863281 249.625 L 82.054688 260.476562 L 82.054688 172.867188 C 72.671875 172.867188 65.082031 165.273438 65.082031 155.894531 C 65.082031 153.46875 65.597656 151.164062 66.511719 149.097656 C 56.296875 151.917969 49.5 157.960938 46.199219 168.492188 Z M 46.199219 168.492188 " fill-opacity="1" fill-rule="evenodd"/></g><g clip-path="url(#3b1ba3a3be)"><path fill="#412659" d="M 117.828125 168.492188 C 120.53125 177.121094 119.65625 188.847656 109.957031 200.8125 C 109.957031 200.8125 121.605469 196.714844 124.707031 176.882812 C 124.707031 176.882812 126.453125 191.429688 125.621094 206.335938 C 125.621094 206.335938 122.558594 203.117188 120.09375 201.40625 C 120.09375 201.40625 124.585938 207.527344 124.707031 221.480469 L 103.398438 242.667969 L 119.179688 231.417969 C 119.179688 231.417969 115.445312 243.699219 119.738281 260.675781 L 95.609375 286.871094 L 95.410156 237.539062 C 95.410156 237.539062 110.355469 226.6875 111.667969 225.375 C 112.980469 224.0625 112.78125 211.542969 112.78125 211.542969 L 90.480469 224.542969 C 90.480469 224.542969 87.5 234.160156 90.164062 249.625 L 81.972656 260.476562 L 81.972656 172.867188 C 91.355469 172.867188 98.945312 165.273438 98.945312 155.894531 C 98.945312 153.46875 98.429688 151.164062 97.515625 149.097656 C 107.730469 151.917969 114.527344 157.960938 117.828125 168.492188 Z M 117.828125 168.492188 " fill-opacity="1" fill-rule="evenodd"/></g><g fill="#9272ae" fill-opacity="1"><g transform="translate(136.454292, 199.995571)"><g><path d="M 23.703125 -0.390625 C 17.828125 0.128906 12.957031 0.390625 9.09375 0.390625 C 6.507812 0.390625 4.609375 -0.210938 3.390625 -1.421875 C 2.179688 -2.628906 1.578125 -4.523438 1.578125 -7.109375 L 1.578125 -19.765625 C 1.578125 -22.523438 2.203125 -24.53125 3.453125 -25.78125 C 4.703125 -27.03125 6.710938 -27.65625 9.484375 -27.65625 L 23.703125 -27.65625 L 23.703125 -22.125 L 11.0625 -22.125 C 9.476562 -22.125 8.6875 -21.335938 8.6875 -19.765625 L 8.6875 -7.109375 C 8.6875 -6.503906 8.863281 -6.023438 9.21875 -5.671875 C 9.582031 -5.316406 10.039062 -5.140625 10.59375 -5.140625 C 11.144531 -5.140625 11.75 -5.144531 12.40625 -5.15625 C 13.0625 -5.164062 13.742188 -5.179688 14.453125 -5.203125 C 15.171875 -5.234375 15.890625 -5.257812 16.609375 -5.28125 C 17.335938 -5.3125 18.273438 -5.367188 19.421875 -5.453125 C 20.566406 -5.535156 21.992188 -5.628906 23.703125 -5.734375 Z M 23.703125 -0.390625 "/></g></g></g><g fill="#9272ae" fill-opacity="1"><g transform="translate(160.950595, 199.995571)"><g><path d="M 20.15625 -20.15625 C 20.15625 -21.738281 19.363281 -22.53125 17.78125 -22.53125 L 11.0625 -22.53125 C 9.476562 -22.53125 8.6875 -21.738281 8.6875 -20.15625 L 8.6875 -7.515625 C 8.6875 -5.929688 9.476562 -5.140625 11.0625 -5.140625 L 17.78125 -5.140625 C 19.363281 -5.140625 20.15625 -5.929688 20.15625 -7.515625 Z M 27.265625 -7.515625 C 27.265625 -4.742188 26.640625 -2.734375 25.390625 -1.484375 C 24.140625 -0.234375 22.128906 0.390625 19.359375 0.390625 L 9.484375 0.390625 C 6.710938 0.390625 4.703125 -0.234375 3.453125 -1.484375 C 2.203125 -2.734375 1.578125 -4.742188 1.578125 -7.515625 L 1.578125 -20.15625 C 1.578125 -22.914062 2.203125 -24.921875 3.453125 -26.171875 C 4.703125 -27.429688 6.710938 -28.0625 9.484375 -28.0625 L 19.359375 -28.0625 C 22.128906 -28.0625 24.140625 -27.429688 25.390625 -26.171875 C 26.640625 -24.921875 27.265625 -22.914062 27.265625 -20.15625 Z M 27.265625 -7.515625 "/></g></g></g><g fill="#9272ae" fill-opacity="1"><g transform="translate(189.793007, 199.995571)"><g><path d="M 9.484375 -5.53125 L 23.90625 -5.53125 L 23.90625 0 L 2.375 0 L 2.375 -27.65625 L 9.484375 -27.65625 Z M 9.484375 -5.53125 "/></g></g></g><g fill="#9272ae" fill-opacity="1"><g transform="translate(214.091744, 199.995571)"><g><path d="M 20.15625 -20.15625 C 20.15625 -21.738281 19.363281 -22.53125 17.78125 -22.53125 L 11.0625 -22.53125 C 9.476562 -22.53125 8.6875 -21.738281 8.6875 -20.15625 L 8.6875 -7.515625 C 8.6875 -5.929688 9.476562 -5.140625 11.0625 -5.140625 L 17.78125 -5.140625 C 19.363281 -5.140625 20.15625 -5.929688 20.15625 -7.515625 Z M 27.265625 -7.515625 C 27.265625 -4.742188 26.640625 -2.734375 25.390625 -1.484375 C 24.140625 -0.234375 22.128906 0.390625 19.359375 0.390625 L 9.484375 0.390625 C 6.710938 0.390625 4.703125 -0.234375 3.453125 -1.484375 C 2.203125 -2.734375 1.578125 -4.742188 1.578125 -7.515625 L 1.578125 -20.15625 C 1.578125 -22.914062 2.203125 -24.921875 3.453125 -26.171875 C 4.703125 -27.429688 6.710938 -28.0625 9.484375 -28.0625 L 19.359375 -28.0625 C 22.128906 -28.0625 24.140625 -27.429688 25.390625 -26.171875 C 26.640625 -24.921875 27.265625 -22.914062 27.265625 -20.15625 Z M 27.265625 -7.515625 "/></g></g></g><g fill="#9272ae" fill-opacity="1"><g transform="translate(242.934156, 199.995571)"><g><path d="M 1.546875 -5.734375 C 8.765625 -5.335938 13.648438 -5.140625 16.203125 -5.140625 C 16.804688 -5.140625 17.285156 -5.316406 17.640625 -5.671875 C 17.992188 -6.023438 18.171875 -6.503906 18.171875 -7.109375 L 18.171875 -10.671875 L 9.09375 -10.671875 C 6.320312 -10.671875 4.3125 -11.296875 3.0625 -12.546875 C 1.8125 -13.796875 1.1875 -15.804688 1.1875 -18.578125 L 1.1875 -19.765625 C 1.1875 -22.523438 1.8125 -24.53125 3.0625 -25.78125 C 4.3125 -27.03125 6.320312 -27.65625 9.09375 -27.65625 L 22.953125 -27.65625 L 22.953125 -22.125 L 10.671875 -22.125 C 9.085938 -22.125 8.296875 -21.335938 8.296875 -19.765625 L 8.296875 -18.96875 C 8.296875 -17.382812 9.085938 -16.59375 10.671875 -16.59375 L 17.78125 -16.59375 C 20.363281 -16.59375 22.257812 -15.988281 23.46875 -14.78125 C 24.6875 -13.570312 25.296875 -11.675781 25.296875 -9.09375 L 25.296875 -7.109375 C 25.296875 -4.523438 24.6875 -2.628906 23.46875 -1.421875 C 22.257812 -0.210938 20.363281 0.390625 17.78125 0.390625 C 16.4375 0.390625 15.015625 0.363281 13.515625 0.3125 L 9.875 0.15625 C 7.1875 0.0195312 4.410156 -0.160156 1.546875 -0.390625 Z M 1.546875 -5.734375 "/></g></g></g><g fill="#9272ae" fill-opacity="1"><g transform="translate(269.405964, 199.995571)"><g><path d="M 1.546875 -5.734375 C 8.765625 -5.335938 13.648438 -5.140625 16.203125 -5.140625 C 16.804688 -5.140625 17.285156 -5.316406 17.640625 -5.671875 C 17.992188 -6.023438 18.171875 -6.503906 18.171875 -7.109375 L 18.171875 -10.671875 L 9.09375 -10.671875 C 6.320312 -10.671875 4.3125 -11.296875 3.0625 -12.546875 C 1.8125 -13.796875 1.1875 -15.804688 1.1875 -18.578125 L 1.1875 -19.765625 C 1.1875 -22.523438 1.8125 -24.53125 3.0625 -25.78125 C 4.3125 -27.03125 6.320312 -27.65625 9.09375 -27.65625 L 22.953125 -27.65625 L 22.953125 -22.125 L 10.671875 -22.125 C 9.085938 -22.125 8.296875 -21.335938 8.296875 -19.765625 L 8.296875 -18.96875 C 8.296875 -17.382812 9.085938 -16.59375 10.671875 -16.59375 L 17.78125 -16.59375 C 20.363281 -16.59375 22.257812 -15.988281 23.46875 -14.78125 C 24.6875 -13.570312 25.296875 -11.675781 25.296875 -9.09375 L 25.296875 -7.109375 C 25.296875 -4.523438 24.6875 -2.628906 23.46875 -1.421875 C 22.257812 -0.210938 20.363281 0.390625 17.78125 0.390625 C 16.4375 0.390625 15.015625 0.363281 13.515625 0.3125 L 9.875 0.15625 C 7.1875 0.0195312 4.410156 -0.160156 1.546875 -0.390625 Z M 1.546875 -5.734375 "/></g></g></g><g fill="#9272ae" fill-opacity="1"><g transform="translate(295.877773, 199.995571)"><g><path d="M 20.15625 -27.65625 L 27.265625 -27.65625 L 27.265625 -7.515625 C 27.265625 -4.742188 26.640625 -2.734375 25.390625 -1.484375 C 24.140625 -0.234375 22.128906 0.390625 19.359375 0.390625 L 10.28125 0.390625 C 7.507812 0.390625 5.5 -0.234375 4.25 -1.484375 C 3 -2.734375 2.375 -4.742188 2.375 -7.515625 L 2.375 -27.65625 L 9.484375 -27.65625 L 9.484375 -7.515625 C 9.484375 -5.929688 10.273438 -5.140625 11.859375 -5.140625 L 17.78125 -5.140625 C 19.363281 -5.140625 20.15625 -5.929688 20.15625 -7.515625 Z M 20.15625 -27.65625 "/></g></g></g><g fill="#9272ae" fill-opacity="1"><g transform="translate(325.51038, 199.995571)"><g><path d="M 1.546875 -5.734375 C 8.765625 -5.335938 13.648438 -5.140625 16.203125 -5.140625 C 16.804688 -5.140625 17.285156 -5.316406 17.640625 -5.671875 C 17.992188 -6.023438 18.171875 -6.503906 18.171875 -7.109375 L 18.171875 -10.671875 L 9.09375 -10.671875 C 6.320312 -10.671875 4.3125 -11.296875 3.0625 -12.546875 C 1.8125 -13.796875 1.1875 -15.804688 1.1875 -18.578125 L 1.1875 -19.765625 C 1.1875 -22.523438 1.8125 -24.53125 3.0625 -25.78125 C 4.3125 -27.03125 6.320312 -27.65625 9.09375 -27.65625 L 22.953125 -27.65625 L 22.953125 -22.125 L 10.671875 -22.125 C 9.085938 -22.125 8.296875 -21.335938 8.296875 -19.765625 L 8.296875 -18.96875 C 8.296875 -17.382812 9.085938 -16.59375 10.671875 -16.59375 L 17.78125 -16.59375 C 20.363281 -16.59375 22.257812 -15.988281 23.46875 -14.78125 C 24.6875 -13.570312 25.296875 -11.675781 25.296875 -9.09375 L 25.296875 -7.109375 C 25.296875 -4.523438 24.6875 -2.628906 23.46875 -1.421875 C 22.257812 -0.210938 20.363281 0.390625 17.78125 0.390625 C 16.4375 0.390625 15.015625 0.363281 13.515625 0.3125 L 9.875 0.15625 C 7.1875 0.0195312 4.410156 -0.160156 1.546875 -0.390625 Z M 1.546875 -5.734375 "/></g></g></g><g fill="#08ebd0" fill-opacity="1"><g transform="translate(137.204292, 239.11059)"><g><path d="M 7.679688 -22.398438 L 17.277344 -22.398438 C 18.429688 -22.398438 19.480469 -22.109375 20.429688 -21.53125 C 21.378906 -20.957031 22.152344 -20.1875 22.75 -19.230469 C 23.34375 -18.269531 23.65625 -17.191406 23.675781 -15.996094 L 20.476562 -15.996094 C 20.476562 -16.871094 20.164062 -17.625 19.53125 -18.253906 C 18.902344 -18.882812 18.152344 -19.195312 17.277344 -19.195312 L 7.679688 -19.195312 C 6.804688 -19.195312 6.050781 -18.882812 5.421875 -18.253906 C 4.792969 -17.625 4.480469 -16.871094 4.480469 -15.996094 L 4.480469 -6.398438 C 4.480469 -5.523438 4.792969 -4.773438 5.421875 -4.144531 C 6.050781 -3.515625 6.804688 -3.199219 7.679688 -3.199219 L 17.277344 -3.199219 C 18.152344 -3.199219 18.902344 -3.515625 19.53125 -4.144531 C 20.164062 -4.773438 20.476562 -5.523438 20.476562 -6.398438 L 23.675781 -6.398438 C 23.675781 -5.269531 23.394531 -4.21875 22.828125 -3.246094 C 22.261719 -2.277344 21.496094 -1.492188 20.523438 -0.894531 C 19.554688 -0.296875 18.472656 0 17.277344 0 L 7.679688 0 C 6.546875 0 5.492188 -0.28125 4.511719 -0.847656 C 3.53125 -1.414062 2.746094 -2.179688 2.160156 -3.152344 C 1.574219 -4.121094 1.28125 -5.203125 1.28125 -6.398438 L 1.28125 -15.996094 C 1.28125 -17.148438 1.5625 -18.207031 2.128906 -19.164062 C 2.691406 -20.125 3.460938 -20.898438 4.429688 -21.484375 C 5.402344 -22.070312 6.484375 -22.375 7.679688 -22.398438 Z M 7.679688 -22.398438 "/></g></g></g><g fill="#08ebd0" fill-opacity="1"><g transform="translate(175.726247, 239.11059)"><g><path d="M 20.796875 -12.796875 L 20.796875 -15.996094 C 20.796875 -16.871094 20.480469 -17.625 19.851562 -18.253906 C 19.222656 -18.882812 18.472656 -19.195312 17.597656 -19.195312 L 4.800781 -19.195312 L 4.800781 -9.597656 L 17.597656 -9.597656 C 18.472656 -9.597656 19.222656 -9.914062 19.851562 -10.542969 C 20.480469 -11.171875 20.796875 -11.921875 20.796875 -12.796875 Z M 23.996094 0 L 21.722656 0 L 15.324219 -6.398438 L 4.800781 -6.398438 L 4.800781 0 L 1.601562 0 L 1.601562 -22.398438 L 17.597656 -22.398438 C 18.726562 -22.398438 19.777344 -22.109375 20.75 -21.53125 C 21.71875 -20.957031 22.503906 -20.1875 23.101562 -19.230469 C 23.699219 -18.269531 23.996094 -17.191406 23.996094 -15.996094 L 23.996094 -12.796875 C 23.996094 -11.433594 23.585938 -10.191406 22.765625 -9.070312 C 21.941406 -7.949219 20.871094 -7.167969 19.550781 -6.71875 L 23.996094 -2.273438 Z M 23.996094 0 "/></g></g></g><g fill="#08ebd0" fill-opacity="1"><g transform="translate(214.888041, 239.11059)"><g><path d="M 23.035156 -17.597656 L 13.4375 -7.039062 L 13.4375 0 L 10.238281 0 L 10.238281 -7.039062 L 0.640625 -17.597656 L 0.640625 -22.398438 L 3.839844 -22.398438 L 3.839844 -18.910156 L 11.839844 -10.109375 L 19.835938 -18.910156 L 19.835938 -22.398438 L 23.035156 -22.398438 Z M 23.035156 -17.597656 "/></g></g></g><g fill="#08ebd0" fill-opacity="1"><g transform="translate(252.450238, 239.11059)"><g><path d="M 20.796875 -12.796875 L 20.796875 -15.996094 C 20.796875 -16.871094 20.480469 -17.625 19.851562 -18.253906 C 19.222656 -18.882812 18.472656 -19.195312 17.597656 -19.195312 L 4.800781 -19.195312 L 4.800781 -9.597656 L 17.597656 -9.597656 C 18.472656 -9.597656 19.222656 -9.914062 19.851562 -10.542969 C 20.480469 -11.171875 20.796875 -11.921875 20.796875 -12.796875 Z M 23.996094 -15.996094 L 23.996094 -12.796875 C 23.996094 -11.667969 23.714844 -10.617188 23.148438 -9.648438 C 22.582031 -8.675781 21.816406 -7.890625 20.84375 -7.292969 C 19.875 -6.699219 18.792969 -6.398438 17.597656 -6.398438 L 4.800781 -6.398438 L 4.800781 0 L 1.601562 0 L 1.601562 -22.398438 L 17.597656 -22.398438 C 18.75 -22.398438 19.800781 -22.109375 20.75 -21.53125 C 21.699219 -20.957031 22.472656 -20.1875 23.070312 -19.230469 C 23.664062 -18.269531 23.976562 -17.191406 23.996094 -15.996094 Z M 23.996094 -15.996094 "/></g></g></g><g fill="#08ebd0" fill-opacity="1"><g transform="translate(291.292112, 239.11059)"><g><path d="M 22.398438 -19.195312 L 12.796875 -19.195312 L 12.796875 0 L 9.597656 0 L 9.597656 -19.195312 L 0 -19.195312 L 0 -22.398438 L 22.398438 -22.398438 Z M 22.398438 -19.195312 "/></g></g></g><g fill="#08ebd0" fill-opacity="1"><g transform="translate(327.574618, 239.11059)"><g><path d="M 20.476562 -6.398438 L 20.476562 -15.996094 C 20.476562 -16.871094 20.164062 -17.625 19.53125 -18.253906 C 18.902344 -18.882812 18.152344 -19.195312 17.277344 -19.195312 L 7.679688 -19.195312 C 6.804688 -19.195312 6.050781 -18.882812 5.421875 -18.253906 C 4.792969 -17.625 4.480469 -16.871094 4.480469 -15.996094 L 4.480469 -6.398438 C 4.480469 -5.523438 4.792969 -4.773438 5.421875 -4.144531 C 6.050781 -3.515625 6.804688 -3.199219 7.679688 -3.199219 L 17.277344 -3.199219 C 18.152344 -3.199219 18.902344 -3.515625 19.53125 -4.144531 C 20.164062 -4.773438 20.476562 -5.523438 20.476562 -6.398438 Z M 23.675781 -15.996094 L 23.675781 -6.398438 C 23.675781 -5.226562 23.386719 -4.152344 22.8125 -3.183594 C 22.238281 -2.214844 21.464844 -1.441406 20.492188 -0.863281 C 19.523438 -0.289062 18.449219 0 17.277344 0 L 7.679688 0 C 6.503906 0 5.433594 -0.289062 4.464844 -0.863281 C 3.492188 -1.441406 2.71875 -2.214844 2.144531 -3.183594 C 1.566406 -4.152344 1.28125 -5.226562 1.28125 -6.398438 L 1.28125 -15.996094 C 1.28125 -17.171875 1.566406 -18.242188 2.144531 -19.214844 C 2.71875 -20.183594 3.492188 -20.957031 4.464844 -21.53125 C 5.433594 -22.109375 6.503906 -22.398438 7.679688 -22.398438 L 17.277344 -22.398438 C 18.40625 -22.398438 19.457031 -22.101562 20.429688 -21.515625 C 21.398438 -20.929688 22.183594 -20.15625 22.78125 -19.195312 C 23.378906 -18.238281 23.675781 -17.171875 23.675781 -15.996094 Z M 23.675781 -15.996094 "/></g></g></g></svg>