<svg xmlns="http://www.w3.org/2000/svg" xmlns:xlink="http://www.w3.org/1999/xlink" width="500" zoomAndPan="magnify" viewBox="0 0 375 374.999991" height="500" preserveAspectRatio="xMidYMid meet" version="1.0"><defs><g/><clipPath id="1a32f38ea6"><path d="M 164 20.957031 L 188 20.957031 L 188 116 L 164 116 Z M 164 20.957031 " clip-rule="nonzero"/></clipPath><clipPath id="9f29bcf55a"><path d="M 187 20.957031 L 211 20.957031 L 211 116 L 187 116 Z M 187 20.957031 " clip-rule="nonzero"/></clipPath><clipPath id="99cfb31897"><path d="M 131 91 L 188 91 L 188 260.207031 L 131 260.207031 Z M 131 91 " clip-rule="nonzero"/></clipPath><clipPath id="1f428a3cf3"><path d="M 187 91 L 244 91 L 244 260.207031 L 187 260.207031 Z M 187 91 " clip-rule="nonzero"/></clipPath></defs><g clip-path="url(#1a32f38ea6)"><path fill="#08ebd0" d="M 187.496094 13.367188 L 178.039062 23.636719 L 178.648438 62.070312 L 173.769531 28.316406 L 164.058594 38.839844 L 175.953125 110.519531 L 179.5625 114.28125 L 181.75 87.847656 L 187.496094 115.148438 Z M 187.496094 13.367188 " fill-opacity="1" fill-rule="evenodd"/></g><g clip-path="url(#9f29bcf55a)"><path fill="#007d7d" d="M 187.496094 13.367188 L 196.949219 23.636719 L 196.339844 62.070312 L 201.21875 28.316406 L 210.929688 38.839844 L 199.035156 110.519531 L 195.425781 114.28125 L 193.238281 87.847656 L 187.496094 115.148438 Z M 187.496094 13.367188 " fill-opacity="1" fill-rule="evenodd"/></g><g clip-path="url(#99cfb31897)"><path fill="#9272ae" d="M 141.6875 116.164062 C 138.230469 127.195312 139.351562 142.191406 151.753906 157.496094 C 151.753906 157.496094 136.859375 152.257812 132.894531 126.890625 C 132.894531 126.890625 130.65625 145.496094 131.722656 164.5625 C 131.722656 164.5625 135.640625 160.445312 138.792969 158.257812 C 138.792969 158.257812 133.046875 166.085938 132.894531 183.929688 L 160.09375 211.027344 L 139.910156 196.640625 C 139.910156 196.640625 144.6875 212.347656 139.199219 234.058594 L 170.109375 267.558594 L 170.363281 204.46875 C 170.363281 204.46875 151.246094 190.589844 149.570312 188.914062 C 147.890625 187.234375 148.144531 171.222656 148.144531 171.222656 L 176.664062 187.84375 C 176.664062 187.84375 180.476562 200.148438 177.074219 219.925781 L 187.546875 233.804688 L 187.546875 121.753906 C 175.546875 121.753906 165.835938 112.046875 165.835938 100.046875 C 165.835938 96.945312 166.496094 93.996094 167.667969 91.355469 C 154.601562 94.964844 145.910156 102.691406 141.6875 116.164062 Z M 141.6875 116.164062 " fill-opacity="1" fill-rule="evenodd"/></g><g clip-path="url(#1f428a3cf3)"><path fill="#412659" d="M 233.300781 116.164062 C 236.757812 127.195312 235.636719 142.191406 223.234375 157.496094 C 223.234375 157.496094 238.128906 152.257812 242.09375 126.890625 C 242.09375 126.890625 244.332031 145.496094 243.265625 164.5625 C 243.265625 164.5625 239.347656 160.445312 236.195312 158.257812 C 236.195312 158.257812 241.941406 166.085938 242.09375 183.929688 L 214.84375 211.027344 L 235.027344 196.640625 C 235.027344 196.640625 230.25 212.347656 235.738281 234.058594 L 204.878906 267.558594 L 204.625 204.46875 C 204.625 204.46875 223.742188 190.589844 225.417969 188.914062 C 227.097656 187.234375 226.84375 171.222656 226.84375 171.222656 L 198.324219 187.84375 C 198.324219 187.84375 194.511719 200.148438 197.914062 219.925781 L 187.441406 233.804688 L 187.441406 121.753906 C 199.441406 121.753906 209.152344 112.046875 209.152344 100.046875 C 209.152344 96.945312 208.492188 93.996094 207.320312 91.355469 C 220.386719 94.964844 229.078125 102.691406 233.300781 116.164062 Z M 233.300781 116.164062 " fill-opacity="1" fill-rule="evenodd"/></g><g fill="#9272ae" fill-opacity="1"><g transform="translate(78.456321, 307.527402)"><g><path d="M 23.703125 -0.390625 C 17.828125 0.128906 12.957031 0.390625 9.09375 0.390625 C 6.507812 0.390625 4.609375 -0.210938 3.390625 -1.421875 C 2.179688 -2.628906 1.578125 -4.523438 1.578125 -7.109375 L 1.578125 -19.765625 C 1.578125 -22.523438 2.203125 -24.53125 3.453125 -25.78125 C 4.703125 -27.03125 6.710938 -27.65625 9.484375 -27.65625 L 23.703125 -27.65625 L 23.703125 -22.125 L 11.0625 -22.125 C 9.476562 -22.125 8.6875 -21.335938 8.6875 -19.765625 L 8.6875 -7.109375 C 8.6875 -6.503906 8.863281 -6.023438 9.21875 -5.671875 C 9.582031 -5.316406 10.039062 -5.140625 10.59375 -5.140625 C 11.144531 -5.140625 11.75 -5.144531 12.40625 -5.15625 C 13.0625 -5.164062 13.742188 -5.179688 14.453125 -5.203125 C 15.171875 -5.234375 15.890625 -5.257812 16.609375 -5.28125 C 17.335938 -5.3125 18.273438 -5.367188 19.421875 -5.453125 C 20.566406 -5.535156 21.992188 -5.628906 23.703125 -5.734375 Z M 23.703125 -0.390625 "/></g></g></g><g fill="#9272ae" fill-opacity="1"><g transform="translate(102.955969, 307.527402)"><g><path d="M 20.15625 -20.15625 C 20.15625 -21.738281 19.363281 -22.53125 17.78125 -22.53125 L 11.0625 -22.53125 C 9.476562 -22.53125 8.6875 -21.738281 8.6875 -20.15625 L 8.6875 -7.515625 C 8.6875 -5.929688 9.476562 -5.140625 11.0625 -5.140625 L 17.78125 -5.140625 C 19.363281 -5.140625 20.15625 -5.929688 20.15625 -7.515625 Z M 27.265625 -7.515625 C 27.265625 -4.742188 26.640625 -2.734375 25.390625 -1.484375 C 24.140625 -0.234375 22.128906 0.390625 19.359375 0.390625 L 9.484375 0.390625 C 6.710938 0.390625 4.703125 -0.234375 3.453125 -1.484375 C 2.203125 -2.734375 1.578125 -4.742188 1.578125 -7.515625 L 1.578125 -20.15625 C 1.578125 -22.914062 2.203125 -24.921875 3.453125 -26.171875 C 4.703125 -27.429688 6.710938 -28.0625 9.484375 -28.0625 L 19.359375 -28.0625 C 22.128906 -28.0625 24.140625 -27.429688 25.390625 -26.171875 C 26.640625 -24.921875 27.265625 -22.914062 27.265625 -20.15625 Z M 27.265625 -7.515625 "/></g></g></g><g fill="#9272ae" fill-opacity="1"><g transform="translate(131.802322, 307.527402)"><g><path d="M 9.484375 -5.53125 L 23.90625 -5.53125 L 23.90625 0 L 2.375 0 L 2.375 -27.65625 L 9.484375 -27.65625 Z M 9.484375 -5.53125 "/></g></g></g><g fill="#9272ae" fill-opacity="1"><g transform="translate(156.104387, 307.527402)"><g><path d="M 20.15625 -20.15625 C 20.15625 -21.738281 19.363281 -22.53125 17.78125 -22.53125 L 11.0625 -22.53125 C 9.476562 -22.53125 8.6875 -21.738281 8.6875 -20.15625 L 8.6875 -7.515625 C 8.6875 -5.929688 9.476562 -5.140625 11.0625 -5.140625 L 17.78125 -5.140625 C 19.363281 -5.140625 20.15625 -5.929688 20.15625 -7.515625 Z M 27.265625 -7.515625 C 27.265625 -4.742188 26.640625 -2.734375 25.390625 -1.484375 C 24.140625 -0.234375 22.128906 0.390625 19.359375 0.390625 L 9.484375 0.390625 C 6.710938 0.390625 4.703125 -0.234375 3.453125 -1.484375 C 2.203125 -2.734375 1.578125 -4.742188 1.578125 -7.515625 L 1.578125 -20.15625 C 1.578125 -22.914062 2.203125 -24.921875 3.453125 -26.171875 C 4.703125 -27.429688 6.710938 -28.0625 9.484375 -28.0625 L 19.359375 -28.0625 C 22.128906 -28.0625 24.140625 -27.429688 25.390625 -26.171875 C 26.640625 -24.921875 27.265625 -22.914062 27.265625 -20.15625 Z M 27.265625 -7.515625 "/></g></g></g><g fill="#412659" fill-opacity="1"><g transform="translate(184.956314, 307.527402)"><g><path d="M 1.546875 -5.734375 C 8.765625 -5.335938 13.648438 -5.140625 16.203125 -5.140625 C 16.804688 -5.140625 17.285156 -5.316406 17.640625 -5.671875 C 17.992188 -6.023438 18.171875 -6.503906 18.171875 -7.109375 L 18.171875 -10.671875 L 9.09375 -10.671875 C 6.320312 -10.671875 4.3125 -11.296875 3.0625 -12.546875 C 1.8125 -13.796875 1.1875 -15.804688 1.1875 -18.578125 L 1.1875 -19.765625 C 1.1875 -22.523438 1.8125 -24.53125 3.0625 -25.78125 C 4.3125 -27.03125 6.320312 -27.65625 9.09375 -27.65625 L 22.953125 -27.65625 L 22.953125 -22.125 L 10.671875 -22.125 C 9.085938 -22.125 8.296875 -21.335938 8.296875 -19.765625 L 8.296875 -18.96875 C 8.296875 -17.382812 9.085938 -16.59375 10.671875 -16.59375 L 17.78125 -16.59375 C 20.363281 -16.59375 22.257812 -15.988281 23.46875 -14.78125 C 24.6875 -13.570312 25.296875 -11.675781 25.296875 -9.09375 L 25.296875 -7.109375 C 25.296875 -4.523438 24.6875 -2.628906 23.46875 -1.421875 C 22.257812 -0.210938 20.363281 0.390625 17.78125 0.390625 C 16.4375 0.390625 15.015625 0.363281 13.515625 0.3125 L 9.875 0.15625 C 7.1875 0.0195312 4.410156 -0.160156 1.546875 -0.390625 Z M 1.546875 -5.734375 "/></g></g></g><g fill="#412659" fill-opacity="1"><g transform="translate(211.431738, 307.527402)"><g><path d="M 1.546875 -5.734375 C 8.765625 -5.335938 13.648438 -5.140625 16.203125 -5.140625 C 16.804688 -5.140625 17.285156 -5.316406 17.640625 -5.671875 C 17.992188 -6.023438 18.171875 -6.503906 18.171875 -7.109375 L 18.171875 -10.671875 L 9.09375 -10.671875 C 6.320312 -10.671875 4.3125 -11.296875 3.0625 -12.546875 C 1.8125 -13.796875 1.1875 -15.804688 1.1875 -18.578125 L 1.1875 -19.765625 C 1.1875 -22.523438 1.8125 -24.53125 3.0625 -25.78125 C 4.3125 -27.03125 6.320312 -27.65625 9.09375 -27.65625 L 22.953125 -27.65625 L 22.953125 -22.125 L 10.671875 -22.125 C 9.085938 -22.125 8.296875 -21.335938 8.296875 -19.765625 L 8.296875 -18.96875 C 8.296875 -17.382812 9.085938 -16.59375 10.671875 -16.59375 L 17.78125 -16.59375 C 20.363281 -16.59375 22.257812 -15.988281 23.46875 -14.78125 C 24.6875 -13.570312 25.296875 -11.675781 25.296875 -9.09375 L 25.296875 -7.109375 C 25.296875 -4.523438 24.6875 -2.628906 23.46875 -1.421875 C 22.257812 -0.210938 20.363281 0.390625 17.78125 0.390625 C 16.4375 0.390625 15.015625 0.363281 13.515625 0.3125 L 9.875 0.15625 C 7.1875 0.0195312 4.410156 -0.160156 1.546875 -0.390625 Z M 1.546875 -5.734375 "/></g></g></g><g fill="#412659" fill-opacity="1"><g transform="translate(237.907162, 307.527402)"><g><path d="M 20.15625 -27.65625 L 27.265625 -27.65625 L 27.265625 -7.515625 C 27.265625 -4.742188 26.640625 -2.734375 25.390625 -1.484375 C 24.140625 -0.234375 22.128906 0.390625 19.359375 0.390625 L 10.28125 0.390625 C 7.507812 0.390625 5.5 -0.234375 4.25 -1.484375 C 3 -2.734375 2.375 -4.742188 2.375 -7.515625 L 2.375 -27.65625 L 9.484375 -27.65625 L 9.484375 -7.515625 C 9.484375 -5.929688 10.273438 -5.140625 11.859375 -5.140625 L 17.78125 -5.140625 C 19.363281 -5.140625 20.15625 -5.929688 20.15625 -7.515625 Z M 20.15625 -27.65625 "/></g></g></g><g fill="#412659" fill-opacity="1"><g transform="translate(267.543822, 307.527402)"><g><path d="M 1.546875 -5.734375 C 8.765625 -5.335938 13.648438 -5.140625 16.203125 -5.140625 C 16.804688 -5.140625 17.285156 -5.316406 17.640625 -5.671875 C 17.992188 -6.023438 18.171875 -6.503906 18.171875 -7.109375 L 18.171875 -10.671875 L 9.09375 -10.671875 C 6.320312 -10.671875 4.3125 -11.296875 3.0625 -12.546875 C 1.8125 -13.796875 1.1875 -15.804688 1.1875 -18.578125 L 1.1875 -19.765625 C 1.1875 -22.523438 1.8125 -24.53125 3.0625 -25.78125 C 4.3125 -27.03125 6.320312 -27.65625 9.09375 -27.65625 L 22.953125 -27.65625 L 22.953125 -22.125 L 10.671875 -22.125 C 9.085938 -22.125 8.296875 -21.335938 8.296875 -19.765625 L 8.296875 -18.96875 C 8.296875 -17.382812 9.085938 -16.59375 10.671875 -16.59375 L 17.78125 -16.59375 C 20.363281 -16.59375 22.257812 -15.988281 23.46875 -14.78125 C 24.6875 -13.570312 25.296875 -11.675781 25.296875 -9.09375 L 25.296875 -7.109375 C 25.296875 -4.523438 24.6875 -2.628906 23.46875 -1.421875 C 22.257812 -0.210938 20.363281 0.390625 17.78125 0.390625 C 16.4375 0.390625 15.015625 0.363281 13.515625 0.3125 L 9.875 0.15625 C 7.1875 0.0195312 4.410156 -0.160156 1.546875 -0.390625 Z M 1.546875 -5.734375 "/></g></g></g><g fill="#08ebd0" fill-opacity="1"><g transform="translate(78.456321, 339.374978)"><g><path d="M 7.679688 -22.398438 L 17.277344 -22.398438 C 18.429688 -22.398438 19.480469 -22.109375 20.429688 -21.53125 C 21.378906 -20.957031 22.152344 -20.1875 22.75 -19.230469 C 23.34375 -18.269531 23.65625 -17.191406 23.675781 -15.996094 L 20.476562 -15.996094 C 20.476562 -16.871094 20.164062 -17.625 19.53125 -18.253906 C 18.902344 -18.882812 18.152344 -19.195312 17.277344 -19.195312 L 7.679688 -19.195312 C 6.804688 -19.195312 6.050781 -18.882812 5.421875 -18.253906 C 4.792969 -17.625 4.480469 -16.871094 4.480469 -15.996094 L 4.480469 -6.398438 C 4.480469 -5.523438 4.792969 -4.773438 5.421875 -4.144531 C 6.050781 -3.515625 6.804688 -3.199219 7.679688 -3.199219 L 17.277344 -3.199219 C 18.152344 -3.199219 18.902344 -3.515625 19.53125 -4.144531 C 20.164062 -4.773438 20.476562 -5.523438 20.476562 -6.398438 L 23.675781 -6.398438 C 23.675781 -5.269531 23.394531 -4.21875 22.828125 -3.246094 C 22.261719 -2.277344 21.496094 -1.492188 20.523438 -0.894531 C 19.554688 -0.296875 18.472656 0 17.277344 0 L 7.679688 0 C 6.546875 0 5.492188 -0.28125 4.511719 -0.847656 C 3.53125 -1.414062 2.746094 -2.179688 2.160156 -3.152344 C 1.574219 -4.121094 1.28125 -5.203125 1.28125 -6.398438 L 1.28125 -15.996094 C 1.28125 -17.148438 1.5625 -18.207031 2.128906 -19.164062 C 2.691406 -20.125 3.460938 -20.898438 4.429688 -21.484375 C 5.402344 -22.070312 6.484375 -22.375 7.679688 -22.398438 Z M 7.679688 -22.398438 "/></g></g></g><g fill="#08ebd0" fill-opacity="1"><g transform="translate(116.978276, 339.374978)"><g><path d="M 20.796875 -12.796875 L 20.796875 -15.996094 C 20.796875 -16.871094 20.480469 -17.625 19.851562 -18.253906 C 19.222656 -18.882812 18.472656 -19.195312 17.597656 -19.195312 L 4.800781 -19.195312 L 4.800781 -9.597656 L 17.597656 -9.597656 C 18.472656 -9.597656 19.222656 -9.914062 19.851562 -10.542969 C 20.480469 -11.171875 20.796875 -11.921875 20.796875 -12.796875 Z M 23.996094 0 L 21.722656 0 L 15.324219 -6.398438 L 4.800781 -6.398438 L 4.800781 0 L 1.601562 0 L 1.601562 -22.398438 L 17.597656 -22.398438 C 18.726562 -22.398438 19.777344 -22.109375 20.75 -21.53125 C 21.71875 -20.957031 22.503906 -20.1875 23.101562 -19.230469 C 23.699219 -18.269531 23.996094 -17.191406 23.996094 -15.996094 L 23.996094 -12.796875 C 23.996094 -11.433594 23.585938 -10.191406 22.765625 -9.070312 C 21.941406 -7.949219 20.871094 -7.167969 19.550781 -6.71875 L 23.996094 -2.273438 Z M 23.996094 0 "/></g></g></g><g fill="#08ebd0" fill-opacity="1"><g transform="translate(156.14007, 339.374978)"><g><path d="M 23.035156 -17.597656 L 13.4375 -7.039062 L 13.4375 0 L 10.238281 0 L 10.238281 -7.039062 L 0.640625 -17.597656 L 0.640625 -22.398438 L 3.839844 -22.398438 L 3.839844 -18.910156 L 11.839844 -10.109375 L 19.835938 -18.910156 L 19.835938 -22.398438 L 23.035156 -22.398438 Z M 23.035156 -17.597656 "/></g></g></g><g fill="#007d7d" fill-opacity="1"><g transform="translate(193.71022, 339.374978)"><g><path d="M 20.796875 -12.796875 L 20.796875 -15.996094 C 20.796875 -16.871094 20.480469 -17.625 19.851562 -18.253906 C 19.222656 -18.882812 18.472656 -19.195312 17.597656 -19.195312 L 4.800781 -19.195312 L 4.800781 -9.597656 L 17.597656 -9.597656 C 18.472656 -9.597656 19.222656 -9.914062 19.851562 -10.542969 C 20.480469 -11.171875 20.796875 -11.921875 20.796875 -12.796875 Z M 23.996094 -15.996094 L 23.996094 -12.796875 C 23.996094 -11.667969 23.714844 -10.617188 23.148438 -9.648438 C 22.582031 -8.675781 21.816406 -7.890625 20.84375 -7.292969 C 19.875 -6.699219 18.792969 -6.398438 17.597656 -6.398438 L 4.800781 -6.398438 L 4.800781 0 L 1.601562 0 L 1.601562 -22.398438 L 17.597656 -22.398438 C 18.75 -22.398438 19.800781 -22.109375 20.75 -21.53125 C 21.699219 -20.957031 22.472656 -20.1875 23.070312 -19.230469 C 23.664062 -18.269531 23.976562 -17.191406 23.996094 -15.996094 Z M 23.996094 -15.996094 "/></g></g></g><g fill="#007d7d" fill-opacity="1"><g transform="translate(232.552094, 339.374978)"><g><path d="M 22.398438 -19.195312 L 12.796875 -19.195312 L 12.796875 0 L 9.597656 0 L 9.597656 -19.195312 L 0 -19.195312 L 0 -22.398438 L 22.398438 -22.398438 Z M 22.398438 -19.195312 "/></g></g></g><g fill="#007d7d" fill-opacity="1"><g transform="translate(268.8346, 339.374978)"><g><path d="M 20.476562 -6.398438 L 20.476562 -15.996094 C 20.476562 -16.871094 20.164062 -17.625 19.53125 -18.253906 C 18.902344 -18.882812 18.152344 -19.195312 17.277344 -19.195312 L 7.679688 -19.195312 C 6.804688 -19.195312 6.050781 -18.882812 5.421875 -18.253906 C 4.792969 -17.625 4.480469 -16.871094 4.480469 -15.996094 L 4.480469 -6.398438 C 4.480469 -5.523438 4.792969 -4.773438 5.421875 -4.144531 C 6.050781 -3.515625 6.804688 -3.199219 7.679688 -3.199219 L 17.277344 -3.199219 C 18.152344 -3.199219 18.902344 -3.515625 19.53125 -4.144531 C 20.164062 -4.773438 20.476562 -5.523438 20.476562 -6.398438 Z M 23.675781 -15.996094 L 23.675781 -6.398438 C 23.675781 -5.226562 23.386719 -4.152344 22.8125 -3.183594 C 22.238281 -2.214844 21.464844 -1.441406 20.492188 -0.863281 C 19.523438 -0.289062 18.449219 0 17.277344 0 L 7.679688 0 C 6.503906 0 5.433594 -0.289062 4.464844 -0.863281 C 3.492188 -1.441406 2.71875 -2.214844 2.144531 -3.183594 C 1.566406 -4.152344 1.28125 -5.226562 1.28125 -6.398438 L 1.28125 -15.996094 C 1.28125 -17.171875 1.566406 -18.242188 2.144531 -19.214844 C 2.71875 -20.183594 3.492188 -20.957031 4.464844 -21.53125 C 5.433594 -22.109375 6.503906 -22.398438 7.679688 -22.398438 L 17.277344 -22.398438 C 18.40625 -22.398438 19.457031 -22.101562 20.429688 -21.515625 C 21.398438 -20.929688 22.183594 -20.15625 22.78125 -19.195312 C 23.378906 -18.238281 23.675781 -17.171875 23.675781 -15.996094 Z M 23.675781 -15.996094 "/></g></g></g></svg>