<svg width="422" height="200" viewBox="40 80 320 200" fill="none" xmlns="http://www.w3.org/2000/svg"> 
  <g clip-path="url(#a)">
    <path fill="#08ebd0" d="m82.012 88.121-7.39 8.027.476 30.051-3.817-26.394-7.594 8.23 9.305 56.047 2.82 2.941 1.711-20.671 4.489 21.347Zm0 0" fill-rule="evenodd"/>
  </g>
  <g clip-path="url(#b)">
    <path fill="#007d7d" d="m82.012 88.121 7.394 8.027-.476 30.051 3.816-26.394 7.594 8.23-9.305 56.047-2.82 2.941-1.711-20.671-4.492 21.347Zm0 0" fill-rule="evenodd"/>
  </g>
  <g clip-path="url(#c)">
    <path fill="#9272ae" d="M46.2 168.492c-2.704 8.63-1.829 20.356 7.87 32.32 0 0-11.648-4.097-14.75-23.93 0 0-1.746 14.548-.914 29.454 0 0 3.063-3.219 5.528-4.93 0 0-4.493 6.121-4.614 20.074l21.27 21.188-15.781-11.25s3.734 12.281-.559 29.258l24.168 26.195.2-49.332s-14.946-10.851-16.259-12.164c-1.312-1.312-1.113-13.832-1.113-13.832l22.3 13s2.981 9.617.317 25.082l8.192 10.852v-87.61c-9.383 0-16.973-7.594-16.973-16.972 0-2.426.516-4.73 1.43-6.797-10.215 2.82-17.012 8.863-20.313 19.394m0 0" fill-rule="evenodd"/>
  </g>
  <g clip-path="url(#d)">
    <path fill="#412659" d="M117.828 168.492c2.703 8.63 1.828 20.356-7.871 32.32 0 0 11.648-4.097 14.75-23.93 0 0 1.746 14.548.914 29.454 0 0-3.062-3.219-5.527-4.93 0 0 4.492 6.121 4.613 20.074l-21.309 21.188 15.782-11.25s-3.735 12.281.558 29.258L95.61 286.87l-.199-49.332s14.945-10.851 16.258-12.164 1.113-13.832 1.113-13.832l-22.3 13s-2.981 9.617-.317 25.082l-8.191 10.852v-87.61c9.382 0 16.972-7.594 16.972-16.972 0-2.426-.515-4.73-1.43-6.797 10.215 2.82 17.012 8.863 20.313 19.394m0 0" fill-rule="evenodd"/>
  </g>
  <path d="M160.157 199.606q-8.813.78-14.61.78c-2.585 0-4.484-.6-5.702-1.812q-1.815-1.81-1.813-5.687V180.23c0-2.757.625-4.765 1.875-6.015q1.873-1.875 6.031-1.875h14.22v5.531h-12.642c-1.586 0-2.376.79-2.376 2.36v12.655q-.001.909.532 1.437.543.533 1.375.531.827 0 1.812-.015a97 97 0 0 0 2.047-.047q1.079-.045 2.156-.078a91 91 0 0 0 2.813-.172q1.715-.123 4.281-.281Zm20.949-19.766q-.001-2.374-2.375-2.375h-6.718q-2.378.001-2.376 2.375v12.64c0 1.586.79 2.375 2.376 2.375h6.718c1.582 0 2.375-.789 2.375-2.375Zm7.11 12.64q0 4.159-1.875 6.032t-6.032 1.874h-9.875c-2.773 0-4.78-.625-6.03-1.875q-1.877-1.872-1.877-6.031v-12.64c0-2.758.625-4.766 1.875-6.016q1.873-1.889 6.031-1.89h9.875q4.156.002 6.032 1.89c1.25 1.25 1.875 3.258 1.875 6.016Zm11.061 1.985h14.422v5.531h-21.531V172.34h7.11Zm34.971-14.625q-.001-2.374-2.375-2.375h-6.718q-2.378.001-2.376 2.375v12.64c0 1.586.79 2.375 2.376 2.375h6.718c1.582 0 2.375-.789 2.375-2.375Zm7.11 12.64q0 4.159-1.875 6.032t-6.032 1.874h-9.875c-2.773 0-4.78-.625-6.03-1.875q-1.877-1.872-1.877-6.031v-12.64c0-2.758.625-4.766 1.875-6.016q1.873-1.889 6.031-1.89h9.875q4.156.002 6.032 1.89c1.25 1.25 1.875 3.258 1.875 6.016Zm3.123 1.782c7.219.398 12.101.593 14.656.593q.904.001 1.438-.53.528-.53.53-1.438v-3.563h-9.076c-2.774 0-4.781-.625-6.031-1.875q-1.875-1.873-1.876-6.031v-1.188c0-2.757.626-4.765 1.876-6.015s3.257-1.875 6.03-1.875h13.86v5.531h-12.282c-1.586 0-2.375.79-2.375 2.36v.796c0 1.586.789 2.375 2.375 2.375h7.11q3.871.001 5.687 1.813 1.827 1.814 1.828 5.687v1.985q0 3.878-1.828 5.687-1.816 1.815-5.689 1.813-2.014-.001-4.264-.079l-3.641-.155a283 283 0 0 1-8.328-.547Zm26.472 0c7.219.398 12.101.593 14.656.593q.904.001 1.438-.53.528-.53.53-1.438v-3.563h-9.076c-2.774 0-4.781-.625-6.031-1.875q-1.875-1.873-1.876-6.031v-1.188c0-2.757.626-4.765 1.876-6.015s3.257-1.875 6.03-1.875h13.86v5.531h-12.282c-1.586 0-2.375.79-2.375 2.36v.796c0 1.586.789 2.375 2.375 2.375h7.11q3.871.001 5.687 1.813 1.827 1.814 1.828 5.687v1.985q0 3.878-1.828 5.687-1.816 1.815-5.689 1.813-2.014-.001-4.264-.079l-3.641-.155a283 283 0 0 1-8.328-.547Zm45.081-21.922h7.11v20.14q0 4.159-1.875 6.032t-6.032 1.874h-9.078q-4.158 0-6.031-1.874-1.875-1.873-1.875-6.032v-20.14h7.11v20.14c0 1.586.788 2.375 2.374 2.375h5.922c1.582 0 2.375-.789 2.375-2.375Zm11.023 21.922c7.219.398 12.101.593 14.656.593q.904.001 1.438-.53.528-.53.53-1.438v-3.563h-9.076c-2.774 0-4.781-.625-6.031-1.875q-1.875-1.873-1.876-6.031v-1.188c0-2.757.626-4.765 1.876-6.015s3.257-1.875 6.03-1.875h13.86v5.531h-12.282c-1.586 0-2.375.79-2.375 2.36v.796c0 1.586.789 2.375 2.375 2.375h7.11q3.871.001 5.687 1.813 1.827 1.814 1.828 5.687v1.985q0 3.878-1.828 5.687-1.816 1.815-5.689 1.813-2.014-.001-4.264-.079l-3.641-.155a283 283 0 0 1-8.328-.547Zm0 0" fill="#9272ae"/>
  <path d="M144.884 216.712h9.597q1.729 0 3.153.867a6.95 6.95 0 0 1 2.32 2.3c.594.961.906 2.04.926 3.235h-3.2c0-.875-.312-1.629-.945-2.258q-.942-.942-2.254-.941h-9.597q-1.314-.001-2.258.941-.943.945-.942 2.258v9.598q0 1.312.942 2.253.945.945 2.258.946h9.597q1.311-.001 2.254-.946.948-.941.946-2.253h3.199q.001 1.693-.848 3.152a6.7 6.7 0 0 1-2.305 2.351q-1.452.896-3.246.895h-9.597a6.2 6.2 0 0 1-3.168-.848 6.5 6.5 0 0 1-2.352-2.304q-.879-1.454-.879-3.246v-9.598c0-1.152.282-2.211.848-3.168a6.55 6.55 0 0 1 2.3-2.32q1.459-.88 3.25-.914m51.64 9.601v-3.2q-.002-1.312-.945-2.257-.944-.942-2.254-.941h-12.798v9.597h12.797q1.311 0 2.254-.945.944-.943.945-2.254m3.201 12.797h-2.274l-6.399-6.398h-10.523v6.398h-3.201v-22.398h15.997q1.694 0 3.152.867a6.9 6.9 0 0 1 2.352 2.3q.895 1.442.894 3.235v3.2q0 2.044-1.23 3.726a6.5 6.5 0 0 1-3.215 2.35l4.445 4.446Zm38.2-17.598-9.597 10.559v7.039h-3.2v-7.04l-9.597-10.557v-4.8h3.199v3.488l8 8.8 7.996-8.8v-3.488h3.2Zm35.324 4.801v-3.2q-.002-1.312-.945-2.257-.944-.942-2.254-.941H257.25v9.597h12.797q1.311 0 2.254-.945.944-.943.945-2.254m3.2-3.2v3.2q0 1.694-.849 3.149a6.65 6.65 0 0 1-2.304 2.355q-1.454.893-3.246.895H257.25v6.398h-3.2v-22.398h15.997q1.728 0 3.152.867a6.95 6.95 0 0 1 2.32 2.3c.594.961.907 2.04.926 3.235m37.245-3.199h-9.601v19.195h-3.2v-19.195h-9.597v-3.203h22.398Zm34.362 12.797v-9.598q.002-1.314-.946-2.258-.942-.942-2.254-.941h-9.597q-1.314-.001-2.258.941-.943.945-.942 2.258v9.598q0 1.312.942 2.253.945.945 2.258.946h9.597q1.311-.001 2.254-.946.948-.941.946-2.253m3.199-9.598v9.598c0 1.171-.29 2.246-.863 3.214a6.54 6.54 0 0 1-2.32 2.32 6.2 6.2 0 0 1-3.217.864h-9.596q-1.763-.002-3.215-.863a6.54 6.54 0 0 1-2.32-2.32c-.579-.97-.864-2.044-.864-3.215v-9.598c0-1.176.285-2.246.864-3.219a6.5 6.5 0 0 1 2.32-2.316q1.452-.867 3.215-.867h9.597q1.694.002 3.153.882a7 7 0 0 1 2.351 2.32q.896 1.436.895 3.2m0 0" fill="#08ebd0"/>
</svg>
